<?xml version="1.0" encoding="UTF-8"?>
<svg width="171px" height="116px" viewBox="0 0 171 116" version="1.1" xmlns="http://www.w3.org/2000/svg" xmlns:xlink="http://www.w3.org/1999/xlink">
    <!-- Generator: Sketch 48.2 (47327) - http://www.bohemiancoding.com/sketch -->
    <title>Group 6</title>
    <desc>Created with Sketch.</desc>
    <defs></defs>
    <g id="Desktop-HD" stroke="none" stroke-width="1" fill="none" fill-rule="evenodd" transform="translate(-626.000000, -163.000000)">
        <g id="Group-6" transform="translate(626.000000, 163.000000)">
            <path d="M0,0 C12.8430295,38.8277636 20.011232,63.6177973 21.5046076,74.3701011 C23.7446708,90.4985568 64.5138227,137.987898 107.075025,103.042911 C135.44916,79.746253 99.757485,45.3986159 0,0 Z" id="Path-2" fill="#DFFF47"></path>
            <path d="M0,0 C32.3333333,20.6666667 51.75,40.6666667 58.25,60 C68,89 64.5138227,137.987898 107.075025,103.042911 C135.44916,79.746253 99.757485,45.3986159 0,0 Z" id="Path-2" fill="#CDE84C"></path>
            <path d="M84,23 C93.5374353,54.2414299 98.860655,74.1878812 99.9696591,82.8393541 C101.633165,95.8165634 131.908977,134.027235 163.515595,105.909948 C184.586673,87.1650905 158.081474,59.5284411 84,23 Z" id="Path-2" fill="#A8BD49" transform="translate(127.257364, 69.500000) scale(-1, 1) translate(-127.257364, -69.500000) "></path>
        </g>
    </g>
</svg>